<svg width="560" height="123" viewBox="0 0 560 123" fill="none" xmlns="http://www.w3.org/2000/svg">
<path d="M110.299 14.6568C110.299 6.81491 103.941 0.457031 96.099 0.457031H45.9322H14.7124C6.87058 0.464064 0.512695 6.81491 0.512695 14.6568V72.3981C0.512695 74.487 2.20766 76.1819 4.29648 76.1819H40.6433C43.2596 76.1819 45.3766 74.065 45.3766 71.4487V45.8976C45.3766 40.672 49.6175 36.4311 54.843 36.4311H106.508C108.597 36.4311 110.292 34.7361 110.292 32.6473V14.6568H110.299Z" fill="#45D6BE"/>
<path d="M65.4497 52.8181V76.4843C65.4497 81.7099 61.2087 85.9508 55.9832 85.9508H4.30429C2.21547 85.9508 0.520508 87.6458 0.520508 89.7346V107.718C0.520508 115.56 6.87839 121.918 14.7202 121.918H96.1068C103.949 121.918 110.306 115.56 110.306 107.718V51.8686C110.306 49.7798 108.612 48.0848 106.523 48.0848H70.1759C67.5666 48.0848 65.4497 50.2018 65.4497 52.8181Z" fill="#0066CC"/>
<path d="M317.599 33.2246C319.646 33.2246 321.383 33.3442 322.825 33.5763C324.267 33.8154 326.109 34.2444 328.367 34.8774L325.617 55.9343C321.109 54.3097 317.128 53.522 313.675 53.5783C309.905 53.5783 306.705 54.2464 304.089 55.5827C301.472 56.919 299.271 59.0289 297.492 61.9124L297.52 118.339H273.319L273.291 34.5679H292.463L295.368 46.2709C300.657 37.571 308.069 33.2246 317.599 33.2246Z" fill="#0066CC"/>
<path d="M397.649 41.7048C403.986 47.5704 407.158 56.0804 407.158 67.2418V118.33H387.198L384.448 108.885C380.988 112.556 377.099 115.341 372.78 117.254C368.455 119.167 363.834 120.123 358.911 120.123C350.211 120.123 343.312 117.873 338.206 113.365C333.093 108.863 330.547 102.808 330.547 95.2123C330.547 86.4139 334.253 79.5497 341.666 74.6265C349.079 69.7034 359.432 67.2418 372.738 67.2418H383.035V65.1178C382.718 55.3771 377.19 50.5032 366.458 50.5032C362.786 50.5032 358.545 51.0377 353.728 52.1137C348.903 53.1898 344.557 54.5612 340.682 56.2421L335.576 39.9747C341.125 37.7241 346.969 35.9799 353.095 34.7491C359.221 33.5183 364.96 32.8994 370.298 32.8994C382.198 32.9064 391.305 35.8392 397.649 41.7048ZM358.792 83.9735C354.994 86.3295 353.095 89.6069 353.095 93.7916C353.095 97.2519 354.143 99.8822 356.239 101.69C358.334 103.497 361.288 104.397 365.114 104.397C368.575 104.397 371.887 103.638 375.052 102.119C378.217 100.6 380.882 98.553 383.028 95.9859V80.4288H374.778C367.921 80.4429 362.589 81.6174 358.792 83.9735Z" fill="#0066CC"/>
<path d="M456.804 120.117C438.258 120.117 428.989 111.262 428.989 93.5602V51.4463H415.077V34.5599H430.557L435.192 10.4365H452.95V34.5599H475.969V51.4533H452.95V90.1914C452.95 94.4886 453.752 97.548 455.348 99.3836C456.945 101.219 459.681 102.134 463.563 102.134C466.862 102.134 470.399 101.479 474.169 100.171L477.707 115.651C470.42 118.626 463.458 120.117 456.804 120.117Z" fill="#0066CC"/>
<path d="M549.809 41.7048C556.146 47.5704 559.318 56.0804 559.318 67.2418V118.33H539.358L536.608 108.885C533.148 112.556 529.259 115.341 524.941 117.254C520.615 119.167 515.994 120.123 511.071 120.123C502.371 120.123 495.472 117.873 490.366 113.365C485.253 108.863 482.707 102.808 482.707 95.2123C482.707 86.4139 486.413 79.5497 493.826 74.6265C501.239 69.7034 511.592 67.2418 524.898 67.2418H535.195V65.1178C534.878 55.3771 529.35 50.5032 518.618 50.5032C514.947 50.5032 510.706 51.0377 505.888 52.1137C501.063 53.1898 496.717 54.5612 492.842 56.2421L487.736 39.9747C493.285 37.7241 499.129 35.9799 505.255 34.7491C511.381 33.5183 517.12 32.8994 522.458 32.8994C534.358 32.9064 543.466 35.8392 549.809 41.7048ZM510.952 83.9735C507.154 86.3295 505.255 89.6069 505.255 93.7916C505.255 97.2519 506.303 99.8822 508.399 101.69C510.495 103.497 513.448 104.397 517.274 104.397C520.735 104.397 524.047 103.638 527.212 102.119C530.384 100.6 533.043 98.553 535.188 95.9859V80.4288H526.938C520.081 80.4429 514.75 81.6174 510.952 83.9735Z" fill="#0066CC"/>
<path d="M253.93 54.9828H232.156H226.347V73.0648L232.156 75.1395V98.5877C227.233 100.001 222.204 100.712 217.07 100.712C206.964 100.712 199.143 97.2796 193.615 90.4224C188.087 83.5651 185.323 73.8947 185.323 61.4321C185.323 48.864 188.312 39.3272 194.283 32.8357C200.254 26.3442 209.024 23.0949 220.608 23.0949C224.687 23.0949 228.78 23.6083 232.859 24.6281C236.946 25.6479 241.714 27.2866 247.165 29.5372L254.395 12.1726C249.26 9.39452 243.472 7.23537 237.03 5.6881C230.588 4.14082 224.145 3.36719 217.703 3.36719C199.368 3.36719 185.189 8.45912 175.153 18.65C165.124 28.8339 160.109 43.2516 160.109 61.8963C160.109 80.4425 164.955 94.7758 174.647 104.91C184.338 115.045 198.032 120.116 215.741 120.116C222.289 120.116 228.97 119.392 235.778 117.957C242.586 116.515 249.007 114.461 255.027 111.789V54.9828H253.93Z" fill="#0066CC"/>
</svg>
