<svg width="18" height="18" viewBox="0 0 18 18" fill="none" xmlns="http://www.w3.org/2000/svg">
<path d="M10.5115 13.2978C9.11943 12.8239 7.68761 12.751 6.37511 13.0791C5.46034 13.2979 4.58534 13.7354 3.78989 14.2822L3.23306 14.7197L3.07397 14.8656L3.43193 15.1572C3.4717 15.1572 3.4717 15.1937 3.51148 15.2301C3.59102 15.3031 3.67057 15.3395 3.78989 15.4124L4.02852 15.5583L4.26715 15.376C4.30693 15.3395 4.38647 15.2666 4.46602 15.2301C5.18193 14.6833 5.97738 14.3187 6.8126 14.1364C7.88647 13.8812 9.03987 13.9176 10.1933 14.3187C11.1478 14.6468 13.0967 15.0479 15.4433 14.1364L15.5228 14.0999L15.6421 13.9906C15.6421 13.9541 15.6819 13.9541 15.7217 13.9176C15.9206 13.6989 16.1194 13.4801 16.2785 13.2249L17.074 12.0947L15.8012 12.751C13.9319 13.6989 12.2217 13.8812 10.5115 13.2978Z" fill="#155EEF"/>
<path d="M5.06261 9.36036C6.13647 9.10515 7.28988 9.14161 8.44328 9.54265C9.71601 9.98015 12.9774 10.5999 16.6365 7.5739L17.233 7.02702L17.2728 6.99056L17.4319 6.84473L17.3524 6.66244C17.3126 6.51661 17.233 6.33432 17.1535 6.15203L16.9546 5.6416L16.5569 6.00618C16.5171 6.0791 16.4376 6.11556 16.358 6.18848C14.608 7.8291 11.9035 9.50619 8.80124 8.48536C7.40919 8.0114 5.97738 7.93848 4.66488 8.26661C3.39215 8.59473 2.27852 9.21452 1.24443 10.0895V10.0531L0.647838 10.6364C0.647838 10.6729 0.608073 10.6729 0.5683 10.7093L0.448975 10.8187L0.48875 10.9645C0.528522 11.1468 0.608065 11.3291 0.647838 11.5114L0.886476 12.0947L1.2842 11.6208C1.32398 11.5479 1.40352 11.5114 1.44329 11.4385C2.27852 10.7458 3.43193 9.7614 5.06261 9.36036Z" fill="#155EEF"/>
<path d="M1.20455 8.70378C2.11933 7.82878 3.15341 7.28191 4.26704 6.99024C5.34091 6.73503 6.49431 6.77149 7.64772 7.17253C11.2273 8.37566 14.3295 6.40691 15.6818 5.34961L16.1988 4.87566L16.3977 4.72982L16.2386 4.51108C16.1193 4.4017 16.0398 4.25587 15.9204 4.11003L15.6818 3.81836L15.4034 4.07357C15.3636 4.11003 15.2841 4.18294 15.2443 4.2194C13.5739 5.67774 10.9886 7.17253 8.04545 6.1517C6.6534 5.67774 5.22159 5.60482 3.90909 5.93295C3.07386 6.1517 2.27841 6.51628 1.48296 6.99024L0.647727 7.61003C0.568181 7.68295 0.528409 7.71941 0.448863 7.79233L0.369325 7.86524V7.97462C0.329553 8.22983 0.329548 8.48503 0.289775 8.70378L0.25 9.61524L0.92614 8.95899C1.00569 8.88607 1.08524 8.7767 1.20455 8.70378Z" fill="#155EEF"/>
<path d="M11.6648 15.7765L11.5853 15.9953L11.6648 15.7765C11.5455 15.7401 11.466 15.7036 11.3466 15.6672C9.95461 15.1932 8.52278 15.1203 7.21028 15.4484C6.93187 15.5213 6.65347 15.5942 6.37506 15.7036L5.42051 16.1047L5.18188 16.214L5.97734 16.4693C6.21597 16.5422 6.45461 16.6151 6.69324 16.688L6.81255 16.7245L6.93188 16.688C7.0512 16.6515 7.17051 16.5786 7.28983 16.5786C7.36938 16.5786 7.44892 16.5422 7.52847 16.5057C8.48301 16.287 9.5171 16.287 10.6307 16.6151C10.7501 16.6515 10.8296 16.688 10.9489 16.7245L11.1478 16.7974L11.2671 16.7609C11.5455 16.688 11.8637 16.6151 12.1023 16.5057L13.216 16.1411L12.0626 15.8859C11.9432 15.8495 11.7841 15.813 11.6648 15.7765Z" fill="#155EEF"/>
<path d="M17.75 8.23047L17.1534 8.77734C17.0738 8.85026 16.9943 8.92318 16.9148 8.9961C15.2841 10.418 12.6591 11.9492 9.7159 10.9284C8.32385 10.4544 6.89204 10.3815 5.57954 10.7096C4.34659 11.0378 3.23294 11.6211 2.23863 12.4961L1.72159 13.0065L1.5625 13.1888L1.72159 13.4076C1.84091 13.5534 1.92046 13.6628 2 13.8086L2.23863 14.1367L2.51704 13.8086C2.55681 13.7721 2.63636 13.6992 2.67613 13.6628C3.63067 12.7148 4.66476 12.1315 5.85794 11.8398C6.93181 11.5846 8.08521 11.6211 9.23862 12.0221C10.2329 12.3503 11.267 12.4596 12.3011 12.3503C14.1307 12.168 15.9602 11.2201 17.3125 10.1628C17.392 10.0899 17.4716 10.0534 17.5511 9.98048L17.6704 9.87109V9.76172C17.6704 9.54297 17.7102 9.28777 17.7102 9.06902L17.75 8.23047Z" fill="#155EEF"/>
<path d="M2.63649 4.87565L2.51718 4.6569L2.63649 4.87565C2.87513 4.76628 3.15354 4.69336 3.39218 4.62044C4.46604 4.36523 5.61945 4.40169 6.77286 4.80273C7.52854 5.05794 8.28422 5.16732 9.11944 5.16732C10.7899 5.16732 12.4603 4.62044 14.0115 3.56315L14.6081 3.12565L14.8069 2.97982L14.449 2.7246C14.3297 2.61523 14.1706 2.50586 14.0115 2.43294L13.7728 2.28711L13.574 2.43294C13.4944 2.4694 13.4547 2.54231 13.3751 2.57877C11.2672 4.0371 9.15922 4.43815 7.17058 3.74544C5.73877 3.27148 4.30694 3.16211 2.87513 3.56315C2.75581 3.59961 2.63649 3.63606 2.4774 3.67252L2.39786 3.70898L2.27854 3.81835C2.27854 3.85481 2.23877 3.85482 2.199 3.89127C2.03991 4.11002 1.84104 4.29232 1.68195 4.51107L0.92627 5.56836L2.15922 4.98502C2.35809 4.98502 2.51717 4.91211 2.63649 4.87565Z" fill="#155EEF"/>
<path d="M5.89773 2.39713L6.01704 2.43359C6.53409 2.61588 7.32955 2.79817 8.32387 2.79817C9.35796 2.79817 10.3523 2.57942 11.3466 2.21484L12.5795 1.66796L11.7443 1.41276C11.5057 1.33984 11.267 1.26693 10.9886 1.23047H10.8693L10.75 1.26692C10.6307 1.30338 10.5114 1.3763 10.392 1.41276C9.19886 1.8138 8.00568 1.88672 6.85227 1.59505C6.73295 1.55859 6.61364 1.52213 6.49432 1.48567L6.37501 1.44921L6.25568 1.48567C6.01705 1.55859 5.77841 1.63151 5.53978 1.74088L4.625 2.10547L5.57955 2.36067C5.6591 2.32421 5.77841 2.36067 5.89773 2.39713Z" fill="#155EEF"/>
</svg>
